<?xml version="1.0" encoding="UTF-8"?><svg xmlns="http://www.w3.org/2000/svg" xmlns:xlink="http://www.w3.org/1999/xlink" fill-opacity="1" color-rendering="auto" color-interpolation="auto" text-rendering="auto" stroke="black" stroke-linecap="square" width="1133" stroke-miterlimit="10" shape-rendering="auto" stroke-opacity="1" fill="black" stroke-dasharray="none" font-weight="normal" stroke-width="1" height="240" font-family="'Dialog'" font-style="normal" stroke-linejoin="miter" font-size="12px" stroke-dashoffset="0" image-rendering="auto">
  <!--Generated by ySVG 2.5-->
  <defs id="genericDefs"/>
  <g>
    <defs id="defs1">
      <clipPath clipPathUnits="userSpaceOnUse" id="clipPath1">
        <path d="M0 0 L1133 0 L1133 240 L0 240 L0 0 Z"/>
      </clipPath>
      <clipPath clipPathUnits="userSpaceOnUse" id="clipPath2">
        <path d="M330 351 L1463 351 L1463 591 L330 591 L330 351 Z"/>
      </clipPath>
    </defs>
    <g fill="white" text-rendering="geometricPrecision" shape-rendering="geometricPrecision" transform="translate(-330,-351)" stroke="white">
      <rect x="330" width="1133" height="240" y="351" clip-path="url(#clipPath2)" stroke="none"/>
    </g>
    <g fill="rgb(255,255,153)" text-rendering="geometricPrecision" shape-rendering="geometricPrecision" transform="matrix(1,0,0,1,-330,-351)" stroke="rgb(255,255,153)">
      <rect x="978" width="470" height="210" y="366" clip-path="url(#clipPath2)" stroke="none"/>
      <rect x="978" y="366" clip-path="url(#clipPath2)" fill="rgb(255,255,218)" width="1" height="210" stroke="none"/>
      <rect x="979" y="366" clip-path="url(#clipPath2)" fill="rgb(255,255,218)" width="468" height="1" stroke="none"/>
      <rect x="979" y="575" clip-path="url(#clipPath2)" fill="rgb(178,178,107)" width="469" height="1" stroke="none"/>
      <rect x="1447" y="366" clip-path="url(#clipPath2)" fill="rgb(178,178,107)" width="1" height="209" stroke="none"/>
    </g>
    <g font-size="18px" stroke-linecap="butt" transform="matrix(1,0,0,1,-330,-351)" text-rendering="geometricPrecision" font-family="sans-serif" shape-rendering="geometricPrecision" stroke-miterlimit="1.45">
      <text x="984" xml:space="preserve" y="388.708" clip-path="url(#clipPath2)" stroke="none">hetzner-de</text>
      <text x="984" xml:space="preserve" font-size="12px" y="567.1699" clip-path="url(#clipPath2)" stroke="none">LXD/LXC host</text>
    </g>
    <g fill="rgb(255,204,0)" text-rendering="geometricPrecision" shape-rendering="geometricPrecision" transform="matrix(1,0,0,1,-330,-351)" stroke="rgb(255,204,0)">
      <rect x="1152" width="271" height="118" y="412" clip-path="url(#clipPath2)" stroke="none"/>
      <rect x="1152" y="412" clip-path="url(#clipPath2)" fill="yellow" width="1" height="118" stroke="none"/>
      <rect x="1153" y="412" clip-path="url(#clipPath2)" fill="yellow" width="269" height="1" stroke="none"/>
      <rect x="1153" y="529" clip-path="url(#clipPath2)" fill="rgb(178,142,0)" width="270" height="1" stroke="none"/>
      <rect x="1422" y="412" clip-path="url(#clipPath2)" fill="rgb(178,142,0)" width="1" height="117" stroke="none"/>
    </g>
    <g stroke-linecap="butt" transform="matrix(1,0,0,1,-330,-351)" text-rendering="geometricPrecision" font-family="sans-serif" shape-rendering="geometricPrecision" font-weight="bold" stroke-miterlimit="1.45">
      <text x="1158" xml:space="preserve" y="429.1387" clip-path="url(#clipPath2)" stroke="none">ubuntu-2004</text>
      <text x="1158" xml:space="preserve" y="521.1699" clip-path="url(#clipPath2)" font-weight="normal" stroke="none">LXD/LXC container</text>
    </g>
    <g fill="rgb(255,204,0)" text-rendering="geometricPrecision" shape-rendering="geometricPrecision" transform="matrix(1,0,0,1,-330,-351)" stroke="rgb(255,204,0)">
      <rect x="345" width="470" height="210" y="366" clip-path="url(#clipPath2)" stroke="none"/>
      <rect x="345" y="366" clip-path="url(#clipPath2)" fill="yellow" width="1" height="210" stroke="none"/>
      <rect x="346" y="366" clip-path="url(#clipPath2)" fill="yellow" width="468" height="1" stroke="none"/>
      <rect x="346" y="575" clip-path="url(#clipPath2)" fill="rgb(178,142,0)" width="469" height="1" stroke="none"/>
      <rect x="814" y="366" clip-path="url(#clipPath2)" fill="rgb(178,142,0)" width="1" height="209" stroke="none"/>
    </g>
    <g font-size="18px" stroke-linecap="butt" transform="matrix(1,0,0,1,-330,-351)" text-rendering="geometricPrecision" font-family="sans-serif" shape-rendering="geometricPrecision" stroke-miterlimit="1.45">
      <text x="351" xml:space="preserve" y="388.708" clip-path="url(#clipPath2)" stroke="none">uli-desktop</text>
      <text x="351" xml:space="preserve" font-size="12px" y="567.1699" clip-path="url(#clipPath2)" stroke="none">Ansible</text>
      <path fill="none" d="M815.0416 471 L1143.9969 471" clip-path="url(#clipPath2)"/>
      <path d="M1151.9969 471 L1139.9969 466 L1142.9969 471 L1139.9969 476 Z" stroke="none" clip-path="url(#clipPath2)"/>
      <text x="986" xml:space="preserve" font-size="12px" y="484.1387" clip-path="url(#clipPath2)" stroke="none">lxc {exec,push,pull}</text>
      <path fill="none" d="M815.0182 471 L970.0101 471" clip-path="url(#clipPath2)"/>
      <path d="M978.0101 471 L966.0101 466 L969.0101 471 L966.0101 476 Z" stroke="none" clip-path="url(#clipPath2)"/>
    </g>
    <g stroke-linecap="butt" transform="matrix(1,0,0,1,-330,-351)" fill="white" text-rendering="geometricPrecision" shape-rendering="geometricPrecision" stroke="white" stroke-miterlimit="1.45">
      <rect x="825.125" width="24.1094" height="17.9688" y="462.0156" clip-path="url(#clipPath2)" stroke="none"/>
      <text x="827.125" y="475.1543" clip-path="url(#clipPath2)" fill="black" font-family="sans-serif" stroke="none" xml:space="preserve">ssh</text>
    </g>
  </g>
</svg>
